<svg width="21" height="21" viewBox="0 0 21 21" fill="none" xmlns="http://www.w3.org/2000/svg">
<path d="M4.5 0.45459H12.5V2.45459H4.5V0.45459ZM2.5 4.45459V2.45459H4.5V4.45459H2.5ZM2.5 12.4546H0.5V4.45459H2.5V12.4546ZM4.5 14.4546H2.5V12.4546H4.5V14.4546ZM12.5 14.4546V16.4546H4.5V14.4546H12.5ZM14.5 12.4546H12.5V14.4546H14.5V16.4546H16.5V18.4546H18.5V20.4546H20.5V18.4546H18.5V16.4546H16.5V14.4546H14.5V12.4546ZM14.5 4.45459H16.5V12.4546H14.5V4.45459ZM14.5 4.45459V2.45459H12.5V4.45459H14.5Z" fill="black"/>
</svg>
